<?xml version="1.0" standalone="no"?>
<!DOCTYPE svg PUBLIC "-//W3C//DTD SVG 20010904//EN"
 "http://www.w3.org/TR/2001/REC-SVG-20010904/DTD/svg10.dtd">
<svg version="1.0" xmlns="http://www.w3.org/2000/svg"
 width="1350.000000pt" height="240.000000pt" viewBox="0 0 1350.000000 240.000000"
 preserveAspectRatio="xMidYMid meet">
<metadata>
Created by potrace 1.10, written by Peter Selinger 2001-2011
</metadata>
<g transform="translate(0.000000,240.000000) scale(0.100000,-0.100000)"
fill="#000000" stroke="none">
<path d="M9980 2000 c0 -70 3 -90 14 -90 8 0 17 7 20 15 5 13 26 15 133 13
l128 -3 3 -294 c2 -255 0 -297 -14 -318 -8 -14 -13 -27 -10 -31 8 -7 205 -7
212 1 3 3 1 15 -5 26 -8 14 -10 116 -9 318 l3 298 120 -1 c66 0 132 -4 148 -9
l27 -7 0 82 0 82 -27 -8 c-16 -4 -177 -9 -359 -11 -287 -3 -333 -2 -344 12 -7
8 -19 15 -26 15 -11 0 -14 -20 -14 -90z"/>
<path d="M4810 2066 c-124 -23 -248 -106 -294 -196 -60 -117 -60 -273 0 -390
23 -45 99 -121 144 -144 90 -45 142 -56 264 -56 80 0 137 5 175 16 85 25 204
75 226 96 19 17 19 19 2 47 -22 38 -23 150 -1 192 8 17 13 33 11 36 -3 2 -83
4 -177 3 -114 0 -177 3 -186 10 -7 7 -21 10 -30 8 -13 -2 -17 -15 -17 -65 0
-35 3 -66 6 -70 4 -3 18 -1 32 5 35 16 187 16 203 0 7 -7 12 -29 12 -49 0 -45
-26 -65 -109 -85 -154 -37 -301 -3 -368 83 -107 137 -71 316 80 403 48 27 60
30 147 30 112 0 187 -22 236 -69 30 -27 33 -28 47 -13 16 20 67 126 67 141 0
6 -10 11 -23 11 -12 0 -47 9 -77 20 -125 47 -247 58 -370 36z"/>
<path d="M7970 2065 c-121 -23 -199 -71 -261 -162 -86 -125 -92 -287 -15 -431
20 -39 112 -132 130 -132 7 0 17 -5 24 -12 49 -49 298 -66 407 -27 190 67 300
249 265 442 -19 110 -68 188 -155 253 -54 40 -88 54 -170 70 -83 16 -137 16
-225 -1z m233 -145 c95 -42 169 -174 153 -273 -10 -61 -54 -143 -94 -177 -99
-82 -257 -80 -357 3 -68 57 -87 103 -87 206 0 72 4 93 23 126 27 47 71 90 119
115 51 27 181 27 243 0z"/>
<path d="M3125 2051 c-3 -5 -1 -12 5 -16 14 -8 14 -711 0 -720 -5 -3 -10 -12
-10 -18 0 -9 28 -12 108 -11 134 2 128 1 109 22 -14 15 -17 42 -17 154 0 75 3
143 6 152 9 24 405 24 428 0 22 -22 23 -246 1 -288 -9 -16 -13 -31 -10 -34 4
-4 162 -6 205 -3 6 1 4 14 -5 31 -13 26 -15 77 -12 363 1 182 6 342 11 355 8
22 8 22 -91 22 -55 0 -102 -3 -106 -6 -3 -4 1 -16 9 -29 11 -17 14 -50 12
-141 l-3 -119 -222 -3 -223 -2 0 135 c0 83 4 135 10 135 6 0 10 7 10 15 0 12
-18 15 -104 15 -58 0 -107 -4 -111 -9z"/>
<path d="M4128 2055 c-3 -3 1 -25 9 -47 20 -59 17 -626 -3 -677 -8 -19 -12
-36 -10 -39 8 -8 207 -8 212 0 3 5 -2 18 -10 30 -23 33 -24 689 -1 708 8 7 12
16 9 21 -6 10 -197 13 -206 4z"/>
<path d="M5495 2051 c-3 -5 -1 -12 5 -16 15 -9 14 -707 -1 -722 -6 -6 -9 -15
-6 -20 6 -9 213 -10 222 -1 3 3 -1 11 -10 18 -12 10 -15 39 -15 154 0 97 4
146 12 154 9 9 69 12 209 12 166 0 200 -2 213 -16 23 -22 23 -242 0 -285 -8
-17 -13 -33 -10 -36 7 -8 195 -10 207 -2 6 3 3 18 -6 35 -21 41 -22 655 -1
696 8 15 12 29 8 32 -10 10 -201 6 -207 -4 -3 -6 1 -17 10 -26 13 -13 15 -37
13 -138 l-3 -121 -222 -3 -223 -2 0 129 c0 76 4 132 10 136 6 3 10 13 10 21 0
11 -20 14 -104 14 -58 0 -107 -4 -111 -9z"/>
<path d="M6780 2051 c0 -6 5 -13 10 -16 6 -4 10 -135 10 -359 0 -305 -2 -355
-15 -366 -9 -7 -13 -15 -11 -18 8 -7 207 -8 219 0 7 4 7 11 -2 22 -9 11 -13
53 -12 147 1 73 4 136 7 141 3 4 93 8 200 8 215 0 251 8 305 67 50 55 59 79
59 153 0 105 -41 172 -129 211 -40 17 -68 19 -342 19 -180 0 -299 -4 -299 -9z
m562 -134 c53 -37 49 -132 -7 -167 -30 -19 -46 -20 -192 -18 l-158 3 -3 89
c-2 49 0 96 3 104 4 11 34 13 168 10 137 -2 166 -6 189 -21z"/>
<path d="M8666 2051 c-3 -5 1 -14 9 -21 23 -19 22 -675 -1 -708 -9 -13 -13
-26 -10 -29 8 -8 195 -10 208 -2 7 4 6 13 -1 28 -11 21 -12 687 -1 721 4 13
-12 15 -97 18 -56 1 -104 -1 -107 -7z"/>
<path d="M9047 2054 c-3 -4 0 -19 8 -35 23 -43 22 -647 -1 -691 -10 -19 -12
-33 -6 -37 8 -5 132 -6 189 -2 9 1 8 8 -3 29 -11 21 -14 75 -14 245 0 190 2
218 16 224 9 3 19 1 23 -5 4 -7 63 -69 132 -139 272 -280 291 -302 285 -327
-4 -15 -1 -25 7 -28 19 -6 196 -2 203 5 3 3 -1 16 -10 29 -23 33 -24 689 -1
708 27 23 5 30 -91 30 -75 0 -94 -3 -94 -14 0 -8 5 -18 10 -21 12 -8 14 -452
1 -459 -4 -3 -47 36 -94 87 -47 50 -142 151 -211 222 -112 116 -125 133 -120
158 l6 27 -115 0 c-62 0 -116 -3 -120 -6z"/>
<path d="M12910 1562 c-19 -10 -60 -34 -90 -55 -68 -46 -80 -47 -46 -3 48 63
40 70 -71 63 -54 -4 -172 -9 -263 -13 l-165 -6 -121 -59 c-67 -33 -127 -59
-133 -59 -19 0 -12 14 19 40 33 27 39 50 13 50 -9 0 -57 -7 -107 -15 -50 -9
-134 -23 -186 -31 -161 -26 -210 -42 -259 -85 -51 -46 -60 -48 -53 -14 4 21 1
25 -20 25 -13 0 -44 -6 -69 -14 -24 -7 -71 -21 -104 -31 -33 -9 -71 -22 -85
-27 -14 -6 -38 -14 -55 -18 -81 -22 -226 -88 -232 -107 -4 -11 1887 -26 1916
-15 26 10 401 374 395 384 -3 4 -60 8 -127 7 -92 0 -131 -5 -157 -17z"/>
<path d="M1755 1493 c-11 -2 -42 -11 -70 -19 -50 -15 -97 -28 -210 -59 -33 -9
-80 -23 -105 -30 -25 -7 -74 -21 -110 -30 -36 -10 -87 -24 -115 -32 -87 -24
-153 -43 -212 -59 -32 -9 -78 -22 -103 -29 -25 -7 -74 -21 -110 -30 -36 -10
-85 -23 -110 -30 -25 -7 -74 -20 -110 -30 -36 -10 -83 -23 -105 -30 -22 -7
-69 -21 -105 -30 -36 -10 -71 -19 -77 -21 -38 -10 -5 -25 155 -70 31 -9 75
-22 97 -29 22 -6 65 -19 95 -27 58 -17 145 -42 220 -63 25 -8 72 -21 105 -31
33 -9 78 -22 100 -29 22 -7 69 -20 105 -30 36 -9 83 -23 105 -30 22 -7 69 -20
105 -30 36 -9 83 -23 105 -30 22 -7 69 -20 105 -30 76 -20 149 -42 205 -61 60
-21 90 -17 151 16 29 17 79 44 109 60 115 63 169 93 217 121 27 16 51 29 53
29 2 0 27 13 54 30 l50 29 16 -22 c13 -18 26 -22 80 -24 36 0 67 3 70 8 3 5
15 3 25 -3 15 -10 27 -10 50 -1 16 6 32 8 34 4 6 -10 109 -7 125 4 7 4 24 2
37 -5 29 -16 54 0 54 34 0 12 5 27 12 34 9 9 911 12 3999 12 l3988 0 28 -33
c24 -30 145 -97 173 -97 5 0 24 -6 42 -14 63 -26 107 -39 275 -84 40 -11 75
-17 77 -14 3 3 3 16 0 28 -9 34 5 30 63 -21 28 -25 58 -45 67 -45 9 0 42 -6
74 -14 31 -8 102 -21 157 -30 178 -26 245 -36 255 -36 24 0 -24 64 -67 89 -16
9 -16 10 5 11 12 0 22 -4 22 -10 0 -5 6 -10 13 -10 7 0 40 -14 72 -30 153 -78
164 -80 437 -91 138 -5 253 -7 256 -4 4 3 1 15 -6 25 -7 11 -17 29 -24 40 -22
35 0 32 54 -8 29 -22 71 -47 93 -55 46 -18 271 -31 280 -17 3 5 -32 46 -78 92
-156 154 -296 286 -313 296 -41 23 -1 32 137 32 91 0 139 4 139 11 0 5 -20 29
-45 51 -25 23 -45 46 -45 52 0 6 20 28 45 50 25 21 44 44 42 50 -3 8 -1335 12
-5113 16 l-5109 5 -5 44 c-6 52 -29 73 -60 54 -12 -8 -21 -9 -25 -3 -9 14 -49
12 -63 -2 -10 -10 -17 -10 -31 -1 -10 6 -23 8 -30 3 -7 -4 -29 -3 -49 3 -25 8
-37 8 -39 1 -2 -7 -33 -10 -84 -8 -70 3 -81 1 -92 -17 -6 -10 -18 -19 -25 -19
-7 0 -56 23 -110 51 -53 29 -128 69 -167 89 -292 154 -266 143 -310 133z m119
-87 c44 -24 122 -65 171 -92 50 -26 129 -68 176 -93 48 -25 97 -53 110 -63 22
-14 22 -17 7 -23 -18 -7 -28 -4 -58 14 -8 5 -22 12 -30 15 -8 3 -22 10 -30 15
-8 6 -109 56 -224 112 l-210 102 -50 -12 c-28 -7 -71 -18 -96 -26 -25 -7 -74
-20 -110 -29 -36 -10 -87 -23 -115 -31 -27 -7 -75 -20 -105 -28 -30 -8 -84
-22 -120 -32 -36 -9 -90 -24 -120 -32 -30 -7 -77 -20 -105 -28 -68 -18 -147
-39 -225 -59 -36 -10 -87 -24 -115 -31 -27 -8 -59 -16 -69 -17 -11 -2 -21 -8
-23 -14 -3 -10 37 -25 157 -58 30 -8 81 -22 112 -31 32 -8 84 -22 115 -31 32
-9 78 -22 103 -29 25 -7 74 -21 110 -30 36 -10 85 -23 110 -30 25 -7 74 -20
110 -30 36 -10 85 -23 110 -30 25 -7 74 -20 110 -30 36 -10 85 -23 110 -30
110 -32 89 -38 374 104 252 126 286 140 286 124 0 -15 -16 -28 -60 -51 -25
-13 -72 -38 -105 -57 -33 -19 -73 -41 -90 -49 -16 -8 -55 -29 -85 -47 -161
-92 -203 -110 -245 -103 -22 3 -56 12 -75 19 -19 7 -64 20 -100 30 -36 9 -83
23 -105 30 -22 7 -69 20 -105 30 -36 9 -83 23 -105 30 -22 7 -69 20 -105 30
-36 10 -83 23 -105 30 -22 7 -69 21 -105 30 -36 10 -83 23 -105 30 -22 7 -66
20 -97 29 -32 9 -84 23 -115 32 -66 19 -112 33 -195 59 -56 18 -72 32 -45 39
6 2 41 11 77 21 36 9 85 23 110 30 25 7 70 20 100 29 30 8 78 22 105 29 28 8
79 22 115 32 36 10 85 23 110 30 25 7 74 20 110 30 36 10 83 23 105 30 22 7
69 21 105 30 36 10 85 23 110 30 25 7 74 20 110 30 36 10 83 23 105 30 61 20
109 33 124 34 7 1 50 -19 95 -43z"/>
<path d="M8131 806 c-52 -11 -101 -70 -101 -121 0 -42 51 -113 87 -121 16 -3
34 -8 42 -10 27 -9 98 8 125 29 24 20 26 24 13 41 -14 19 -15 19 -44 -2 -44
-31 -76 -36 -117 -17 -37 18 -49 41 -48 90 2 63 96 99 157 59 30 -19 55 -12
55 15 0 13 -8 23 -22 26 -80 18 -108 20 -147 11z"/>
<path d="M2987 803 c-3 -5 -6 -62 -6 -127 l0 -117 27 3 c25 3 27 6 24 42 -8
85 78 73 116 -16 9 -22 18 -28 42 -28 20 0 30 5 30 15 0 8 -4 15 -8 15 -5 0
-17 15 -27 34 l-18 34 26 32 c32 37 33 56 7 90 -17 23 -26 25 -113 28 -52 2
-97 0 -100 -5z m173 -48 c7 -8 10 -22 6 -30 -4 -13 -19 -15 -68 -13 -52 2 -63
6 -66 22 -2 10 2 22 10 27 22 15 104 10 118 -6z"/>
<path d="M4835 800 c-4 -7 -3 -22 3 -33 18 -40 41 -101 58 -154 15 -48 19 -53
45 -53 23 0 29 4 29 23 1 12 7 33 15 47 8 14 14 35 15 47 1 63 54 4 66 -74 6
-40 8 -43 38 -43 30 0 33 3 43 48 12 51 37 124 54 159 14 25 5 43 -21 43 -13
0 -22 -9 -26 -27 -9 -45 -38 -114 -48 -116 -7 -2 -36 70 -52 131 -2 8 -15 12
-31 10 -23 -3 -29 -11 -47 -68 -24 -73 -51 -92 -62 -43 -17 75 -33 108 -52
111 -11 2 -23 -2 -27 -8z"/>
<path d="M3274 734 c-44 -47 -46 -95 -6 -143 26 -32 33 -34 88 -35 64 0 108
20 119 55 9 28 24 23 59 -18 30 -34 36 -36 93 -37 67 -1 92 13 119 67 12 22
13 35 3 67 -16 53 -59 80 -126 80 -45 0 -54 -4 -93 -42 -31 -31 -44 -39 -48
-29 -3 8 -19 27 -36 43 -25 23 -39 28 -85 28 -49 0 -57 -3 -87 -36z m144 -24
c66 -62 -26 -155 -103 -104 -34 22 -35 84 -2 107 31 22 79 21 105 -3z m270 0
c68 -63 -36 -160 -109 -102 -28 23 -30 73 -4 102 24 27 84 27 113 0z"/>
<path d="M3789 768 c0 -2 -1 -49 -2 -106 l-2 -103 25 3 c21 3 25 8 22 31 -4
42 15 60 55 52 25 -4 35 -2 39 10 9 22 -1 29 -44 30 -30 0 -38 4 -40 21 -4 29
20 36 97 28 l64 -7 -6 -83 c-5 -83 -5 -84 19 -84 24 0 24 1 24 104 l0 104
-125 1 c-69 1 -125 0 -126 -1z"/>
<path d="M4089 768 c0 -2 -1 -49 -2 -106 -2 -100 -1 -102 21 -102 20 0 22 4
22 60 0 47 3 60 15 60 8 0 15 -4 15 -8 0 -5 13 -21 28 -38 16 -16 34 -39 41
-52 9 -17 19 -22 38 -20 26 3 26 3 26 103 0 94 -2 100 -22 103 -19 3 -21 -1
-21 -52 0 -30 -4 -57 -9 -60 -11 -7 -74 62 -81 89 -4 14 -16 21 -38 23 -18 2
-32 2 -33 0z"/>
<path d="M4363 742 c-38 -36 -48 -77 -29 -123 19 -46 54 -63 123 -62 70 2 95
22 91 72 l-3 36 -50 0 c-39 0 -50 -4 -53 -17 -2 -12 5 -19 23 -24 35 -9 26
-28 -14 -32 -67 -7 -107 73 -59 118 23 22 77 27 95 9 13 -13 55 -8 60 8 7 19
-52 43 -104 43 -39 0 -54 -5 -80 -28z"/>
<path d="M5294 758 c-6 -7 -23 -46 -39 -86 -16 -40 -32 -75 -37 -78 -18 -12
-7 -34 17 -34 18 0 28 7 35 25 8 20 16 25 45 25 26 0 39 -6 51 -25 15 -24 64
-36 64 -17 0 5 -14 37 -32 72 -17 35 -34 77 -37 94 -5 24 -13 32 -32 34 -14 2
-30 -3 -35 -10z m36 -94 c0 -8 -7 -14 -15 -14 -15 0 -21 21 -9 33 10 9 24 -2
24 -19z"/>
<path d="M5422 748 c3 -20 8 -23 40 -20 44 4 51 -11 46 -101 -3 -60 -2 -62 21
-62 24 0 24 2 22 77 -1 42 2 79 8 82 5 4 29 3 52 0 l41 -7 -4 -78 -5 -77 91
-4 c91 -4 127 5 106 26 -5 5 -38 10 -73 11 -59 0 -62 1 -62 25 0 21 5 25 32
25 38 0 62 18 41 31 -7 5 -26 9 -43 9 -23 0 -31 5 -33 22 -4 28 24 37 87 28
38 -5 50 -3 54 8 3 8 3 18 0 21 -4 3 -100 6 -215 6 l-209 0 3 -22z"/>
<path d="M5867 763 c-2 -5 -5 -52 -5 -105 l0 -98 25 0 c22 0 25 3 20 27 -7 37
1 53 28 53 25 0 49 -24 59 -57 6 -17 15 -23 37 -23 34 0 36 8 9 43 -24 30 -25
41 -5 57 21 17 19 73 -3 93 -14 13 -38 17 -90 17 -39 0 -73 -3 -75 -7z m137
-43 c5 -5 6 -16 2 -25 -4 -12 -16 -15 -48 -13 -35 2 -44 7 -46 25 -2 14 3 23
15 26 22 6 65 -1 77 -13z"/>
<path d="M6085 758 c-3 -7 -4 -47 -2 -88 1 -41 0 -82 -3 -90 -4 -11 4 -16 28
-18 31 -3 32 -2 32 36 l0 39 52 6 c31 4 60 14 73 27 12 11 25 20 29 20 4 0 6
-28 5 -62 -3 -62 -2 -63 24 -66 25 -3 27 0 27 31 0 67 50 65 85 -4 11 -20 23
-29 40 -29 30 0 32 13 6 47 -22 27 -18 48 11 64 23 12 17 42 -15 77 -18 19
-30 22 -98 22 -81 0 -96 -9 -82 -47 4 -11 -7 -6 -28 15 -33 30 -39 32 -107 32
-49 0 -74 -4 -77 -12z m130 -32 c11 -8 16 -19 12 -30 -10 -25 -80 -18 -85 8
-7 33 39 47 73 22z m227 -8 c14 -23 3 -33 -40 -36 -45 -3 -60 11 -48 44 5 13
15 15 43 11 20 -4 40 -12 45 -19z"/>
<path d="M6568 753 c-55 -34 -62 -123 -15 -170 18 -19 36 -24 79 -26 65 -2 95
11 128 60 l24 36 12 -29 c21 -52 48 -67 116 -67 58 0 63 2 95 36 37 41 42 74
17 117 -51 86 -210 78 -229 -12 l-7 -29 -29 37 c-16 20 -37 43 -47 50 -24 19
-111 17 -144 -3z m124 -37 c10 -7 21 -27 24 -44 5 -24 1 -36 -19 -56 -34 -34
-78 -34 -112 -1 -32 32 -32 59 0 90 27 28 79 33 107 11z m273 -6 c42 -46 8
-120 -55 -120 -38 0 -80 35 -80 68 0 62 93 98 135 52z"/>
<path d="M7069 765 c0 -3 -1 -49 -1 -102 0 -97 0 -98 23 -98 21 0 24 4 21 34
-4 40 8 51 61 51 26 0 37 4 37 15 0 10 -10 15 -34 15 -44 0 -66 9 -66 26 0 29
71 45 110 24 15 -8 21 -6 29 9 6 10 7 21 4 25 -7 7 -183 8 -184 1z"/>
<path d="M7279 765 c0 -3 -1 -49 -1 -102 0 -95 0 -98 22 -98 22 0 22 4 24 97
1 73 -2 99 -12 103 -17 6 -32 6 -33 0z"/>
<path d="M7369 765 c0 -3 -1 -49 -1 -102 -1 -93 1 -98 21 -101 20 -3 21 -1 15
51 -8 71 7 82 50 36 18 -19 40 -46 50 -61 13 -20 27 -28 46 -28 l28 0 -2 103
c-1 102 -1 102 -26 102 -24 0 -25 -3 -22 -46 2 -28 -1 -50 -8 -54 -14 -8 -53
27 -81 72 -14 23 -28 33 -45 33 -13 0 -24 -2 -25 -5z"/>
<path d="M7641 741 c-31 -29 -36 -48 -32 -106 5 -54 70 -91 141 -79 71 12 96
46 70 95 -8 14 -21 19 -50 19 -33 0 -40 -3 -40 -20 0 -13 10 -24 27 -31 22 -8
24 -12 13 -19 -28 -18 -76 -11 -98 13 -28 30 -28 68 1 95 27 26 66 28 108 7
27 -14 30 -14 36 1 11 29 -32 54 -92 54 -45 0 -58 -5 -84 -29z"/>
<path d="M8365 735 c-47 -48 -48 -91 -2 -142 32 -34 37 -36 96 -36 54 0 66 3
89 27 22 22 27 35 27 77 0 45 -4 54 -33 80 -27 24 -41 29 -87 29 -49 0 -58 -4
-90 -35z m150 -30 c32 -31 32 -58 0 -90 -34 -33 -78 -33 -112 1 -46 46 -14
113 55 114 22 0 41 -8 57 -25z"/>
<path d="M8609 721 c-1 -28 -1 -75 -2 -103 -1 -50 0 -53 26 -56 27 -3 27 -3
27 57 0 34 4 61 10 61 6 0 31 -27 57 -60 38 -50 52 -60 72 -58 20 2 25 8 23
23 -3 21 -2 151 1 169 1 6 -8 12 -20 14 -22 3 -23 0 -23 -52 0 -30 -4 -57 -8
-60 -11 -6 -70 53 -86 86 -8 16 -22 24 -44 26 l-32 3 -1 -50z"/>
<path d="M8881 746 c-23 -24 -26 -47 -11 -76 8 -14 26 -21 71 -26 61 -7 87
-27 58 -45 -23 -14 -76 -10 -93 7 -18 18 -56 10 -56 -11 0 -29 88 -51 150 -37
47 10 70 53 49 91 -13 22 -23 27 -74 31 -47 4 -61 9 -63 22 -5 29 43 42 81 23
27 -13 39 -14 80 -3 62 16 69 7 65 -87 -3 -69 -3 -70 23 -73 l26 -3 -5 74 c-5
84 0 92 61 93 l38 0 -2 -80 -2 -81 28 -3 c25 -3 27 -1 21 21 -19 77 65 76 88
0 5 -16 15 -23 31 -23 33 0 38 13 15 43 -24 30 -25 41 -5 57 21 17 19 73 -3
94 -17 14 -50 16 -284 15 -262 0 -266 -1 -287 -23z m523 -16 c16 -6 26 -17 26
-30 0 -17 -6 -20 -49 -20 -52 0 -65 12 -49 43 10 19 34 22 72 7z"/>
<path d="M9507 764 c-4 -4 -7 -40 -7 -80 0 -62 3 -77 24 -101 21 -24 31 -27
81 -27 51 0 60 3 82 28 22 25 24 36 21 105 -3 74 -4 76 -28 76 -24 0 -25 -1
-22 -67 5 -84 -7 -108 -53 -108 -46 0 -58 24 -53 108 3 61 1 67 -17 70 -12 2
-24 0 -28 -4z"/>
<path d="M9769 742 c-30 -27 -34 -36 -34 -80 0 -39 5 -56 23 -75 40 -43 138
-45 182 -5 19 18 20 22 7 36 -14 13 -18 12 -43 -7 -39 -31 -77 -27 -108 10
-33 39 -33 54 0 84 29 27 68 32 109 13 18 -8 32 -8 48 -1 12 6 34 11 49 12 38
1 51 -28 46 -103 -3 -60 -3 -61 24 -64 l27 -3 3 83 c3 83 3 83 31 86 46 6 57
-12 57 -94 0 -73 1 -74 25 -74 l26 0 -3 103 -3 102 -145 -1 c-80 -1 -149 -2
-155 -2 -5 -1 -38 1 -71 4 -58 5 -64 4 -95 -24z"/>
<path d="M10313 749 c-53 -34 -57 -123 -8 -169 20 -19 37 -23 86 -24 58 -1 62
1 95 36 47 52 46 92 -3 141 -32 33 -42 37 -87 37 -34 0 -62 -7 -83 -21z m129
-33 c10 -7 21 -27 24 -44 5 -24 1 -36 -19 -56 -34 -34 -78 -34 -112 -1 -31 32
-32 61 -3 92 24 26 82 31 110 9z"/>
<path d="M10549 765 c0 -3 -1 -49 -1 -102 -1 -93 1 -98 21 -101 20 -3 21 -1
15 51 -4 38 -3 57 6 62 13 8 58 -31 92 -82 17 -24 31 -33 51 -33 l28 0 -3 103
c-3 97 -4 102 -25 105 -22 3 -23 0 -23 -52 0 -73 -16 -73 -71 -1 -30 40 -48
55 -65 55 -13 0 -24 -2 -25 -5z"/>
</g>
</svg>
